<?xml version="1.0" encoding="UTF-8"?><svg xmlns="http://www.w3.org/2000/svg" viewBox="0 0 24 24"><g id="a"/><g id="b"/><g id="c"/><g id="d"/><g id="e"/><g id="f"><path d="M18.74,11.27c0-.09,.01-.18,.01-.27,0-3.17-2.58-5.75-5.75-5.75-2.58,0-4.79,1.72-5.5,4.12-.32-.08-.66-.12-1-.12-2.34,0-4.25,1.91-4.25,4.25s1.91,4.25,4.25,4.25h12c1.79,0,3.25-1.46,3.25-3.25s-1.33-3.1-3.01-3.23Zm-.24,4.98H6.5c-1.52,0-2.75-1.23-2.75-2.75s1.23-2.75,2.75-2.75c.43,0,.83,.09,1.21,.28,.04,.02,.08,.02,.12,.03,.04,.01,.07,.03,.11,.04,0,0,.02,0,.02,0,.07,0,.13,0,.2-.01,.03,0,.06,0,.08-.01,.07-.02,.13-.06,.19-.1,.02-.01,.04-.02,.06-.03,.05-.04,.09-.09,.13-.15,.02-.03,.04-.05,.06-.08,0-.01,.02-.02,.02-.03,.03-.05,.03-.11,.04-.17,0-.02,.02-.04,.02-.07,.27-2.11,2.08-3.7,4.21-3.7,2.34,0,4.25,1.91,4.25,4.25,0,.29-.03,.58-.09,.86,0,.01,0,.02,0,.03-.03,.12-.04,.25-.01,.37,.1,.4,.51,.64,.91,.54,.14-.04,.29-.05,.44-.05,.96,0,1.75,.79,1.75,1.75s-.79,1.75-1.75,1.75Z"/></g><g id="g"/><g id="h"/><g id="i"/><g id="j"/><g id="k"/><g id="l"/><g id="m"/><g id="n"/><g id="o"/><g id="p"/><g id="q"/><g id="r"/><g id="s"/><g id="t"/><g id="u"/></svg>