<?xml version="1.0" encoding="UTF-8"?><svg xmlns="http://www.w3.org/2000/svg" viewBox="0 0 24 24"><g id="a"/><g id="b"/><g id="c"/><g id="d"/><g id="e"/><g id="f"/><g id="g"/><g id="h"/><g id="i"/><g id="j"/><g id="k"/><g id="l"/><g id="m"><path d="M21.45,6.77h0v-.02c-.74-2.09-2.73-3.5-4.95-3.5-1.92,0-3.58,1.05-4.5,2.59-.92-1.54-2.58-2.59-4.5-2.59-2.22,0-4.21,1.41-4.95,3.5h0v.02C.35,13.42,11.18,19.41,11.64,19.66c.11,.06,.24,.09,.36,.09h0c.12,0,.24-.03,.36-.09,.46-.25,11.29-6.24,9.1-12.89Zm-9.45,11.37c-1.79-1.05-9.64-6.02-8.03-10.9h0c.53-1.49,1.95-2.48,3.53-2.48,2.07,0,3.75,1.68,3.75,3.75,0,.41,.34,.75,.75,.75s.75-.34,.75-.75c0-2.07,1.68-3.75,3.75-3.75,1.58,0,3,1,3.53,2.48h0c1.61,4.88-6.24,9.85-8.03,10.9Z"/></g><g id="n"/><g id="o"/><g id="p"/><g id="q"/><g id="r"/><g id="s"/><g id="t"/><g id="u"/></svg>