<?xml version="1.0" encoding="UTF-8"?><svg xmlns="http://www.w3.org/2000/svg" viewBox="0 0 24 24"><g id="a"/><g id="b"/><g id="c"/><g id="d"/><g id="e"/><g id="f"/><g id="g"/><g id="h"/><g id="i"/><g id="j"/><g id="k"/><g id="l"/><g id="m"><path d="M21.53,20.47l-4.69-4.69c1.19-1.43,1.91-3.27,1.91-5.28,0-4.55-3.7-8.25-8.25-8.25S2.25,5.95,2.25,10.5s3.7,8.25,8.25,8.25c2,0,3.84-.72,5.28-1.91l4.69,4.69c.15,.15,.34,.22,.53,.22s.38-.07,.53-.22c.29-.29,.29-.77,0-1.06ZM3.75,10.5c0-3.72,3.03-6.75,6.75-6.75s6.75,3.03,6.75,6.75-3.03,6.75-6.75,6.75-6.75-3.03-6.75-6.75Z"/></g><g id="n"/><g id="o"/><g id="p"/><g id="q"/><g id="r"/><g id="s"/><g id="t"/><g id="u"/></svg>